{
    "asset" : {
        "generator" : "Khronos glTF Blender I/O v3.4.50",
        "version" : "2.0"
    },
    "scene" : 0,
    "scenes" : [
        {
            "name" : "Scene",
            "nodes" : [
                1
            ]
        }
    ],
    "nodes" : [
        {
            "mesh" : 0,
            "name" : "Basket_Mushrooms_Handle",
            "translation" : [
                7.62939453125e-06,
                0.31102943420410156,
                0
            ]
        },
        {
            "children" : [
                0
            ],
            "mesh" : 1,
            "name" : "Basket_Mushrooms"
        }
    ],
    "materials" : [
        {
            "name" : "witch",
            "pbrMetallicRoughness" : {
                "baseColorTexture" : {
                    "index" : 0
                },
                "metallicFactor" : 0,
                "roughnessFactor" : 0.5
            }
        }
    ],
    "meshes" : [
        {
            "name" : "Basket_Mushrooms_Handle",
            "primitives" : [
                {
                    "attributes" : {
                        "POSITION" : 0,
                        "TEXCOORD_0" : 1,
                        "NORMAL" : 2
                    },
                    "indices" : 3,
                    "material" : 0
                }
            ]
        },
        {
            "name" : "Basket_Mushrooms",
            "primitives" : [
                {
                    "attributes" : {
                        "POSITION" : 4,
                        "TEXCOORD_0" : 5,
                        "NORMAL" : 6
                    },
                    "indices" : 7,
                    "material" : 0
                }
            ]
        }
    ],
    "textures" : [
        {
            "sampler" : 0,
            "source" : 0
        }
    ],
    "images" : [
        {
            "mimeType" : "image/png",
            "name" : "witch_texture_A",
            "uri" : "witch_texture_A.png"
        }
    ],
    "accessors" : [
        {
            "bufferView" : 0,
            "componentType" : 5126,
            "count" : 276,
            "max" : [
                0.05203208699822426,
                0.42279109358787537,
                0.2992042303085327
            ],
            "min" : [
                -0.052032094448804855,
                -0.04335477948188782,
                -0.2992042303085327
            ],
            "type" : "VEC3"
        },
        {
            "bufferView" : 1,
            "componentType" : 5126,
            "count" : 276,
            "type" : "VEC2"
        },
        {
            "bufferView" : 2,
            "componentType" : 5126,
            "count" : 276,
            "type" : "VEC3"
        },
        {
            "bufferView" : 3,
            "componentType" : 5123,
            "count" : 576,
            "type" : "SCALAR"
        },
        {
            "bufferView" : 4,
            "componentType" : 5126,
            "count" : 1326,
            "max" : [
                0.31952157616615295,
                0.531800389289856,
                0.27832937240600586
            ],
            "min" : [
                -0.3195244371891022,
                -5.960464477539063e-08,
                -0.27832937240600586
            ],
            "type" : "VEC3"
        },
        {
            "bufferView" : 5,
            "componentType" : 5126,
            "count" : 1326,
            "type" : "VEC2"
        },
        {
            "bufferView" : 6,
            "componentType" : 5126,
            "count" : 1326,
            "type" : "VEC3"
        },
        {
            "bufferView" : 7,
            "componentType" : 5123,
            "count" : 4092,
            "type" : "SCALAR"
        }
    ],
    "bufferViews" : [
        {
            "buffer" : 0,
            "byteLength" : 3312,
            "byteOffset" : 0,
            "target" : 34962
        },
        {
            "buffer" : 0,
            "byteLength" : 2208,
            "byteOffset" : 3312,
            "target" : 34962
        },
        {
            "buffer" : 0,
            "byteLength" : 3312,
            "byteOffset" : 5520,
            "target" : 34962
        },
        {
            "buffer" : 0,
            "byteLength" : 1152,
            "byteOffset" : 8832,
            "target" : 34963
        },
        {
            "buffer" : 0,
            "byteLength" : 15912,
            "byteOffset" : 9984,
            "target" : 34962
        },
        {
            "buffer" : 0,
            "byteLength" : 10608,
            "byteOffset" : 25896,
            "target" : 34962
        },
        {
            "buffer" : 0,
            "byteLength" : 15912,
            "byteOffset" : 36504,
            "target" : 34962
        },
        {
            "buffer" : 0,
            "byteLength" : 8184,
            "byteOffset" : 52416,
            "target" : 34963
        }
    ],
    "samplers" : [
        {
            "magFilter" : 9729,
            "minFilter" : 9987
        }
    ],
    "buffers" : [
        {
            "byteLength" : 60600,
            "uri" : "Basket_Mushrooms.bin"
        }
    ]
}
